<svg xmlns="http://www.w3.org/2000/svg" viewBox="0 0 111.03 28.41"><defs><style>.cls-1{fill:#2162a5;}</style></defs><g id="Layer_2" data-name="Layer 2"><g id="Layer_1-2" data-name="Layer 1"><path id="path7" class="cls-1" d="M23.69,27.4V1.11A12.31,12.31,0,0,1,32,5.29a28,28,0,0,1,5.27,9c2.21-6.06,6.38-12.59,13.44-13.2v9.14a15.27,15.27,0,0,1,4.87-7.34,14.44,14.44,0,0,1,9-2.91c5.88,0,11.76,4,12.81,10H70.64C69.48,7.33,67,6.26,64.19,6.26a7.7,7.7,0,0,0-7.92,7.85c0,4.7,3.11,8.14,7.87,8.14a7.43,7.43,0,0,0,5.38-2.05,8.26,8.26,0,0,0,1.72-2.84H63.45V11.08H77.9v-10H91.44V7.43H84.37v3.65h7.07v6.28H84.37v3.71h7.07V27.4H77.9v-10A13.93,13.93,0,0,1,64.05,28.41a13.67,13.67,0,0,1-9-3,13.53,13.53,0,0,1-4.3-7.16V27.4H44.37V13.16c-3,4-4.07,9.27-4.17,14.24h-6A27,27,0,0,0,30,13.16V27.4Z"/><path id="path11" class="cls-1" d="M104.69,1.11H111V27.4h-5.72c-.84-4.35-2.9-9.89-6.48-12.65V27.4H92.49V1.1c2.88.58,6.64,3.54,8.74,5.55a15.66,15.66,0,0,1,3.46,4.43Z"/><path id="path10" class="cls-1" d="M0,27.4l.19-.65,1.08-3.7a70.76,70.76,0,0,1,3.42-9C8,6.75,13.56,1,22.05,1h.59V27.4H16.25V21H8.13L8,21.58l-.38,1.17L7,24.59l-.5,2-.2.78ZM11,14.75h5.24v-6C13.47,10,12.31,12.1,11,14.75Z"/></g></g></svg>