<svg xmlns="http://www.w3.org/2000/svg" viewBox="0 0 149.2 36.19"><defs><style>.cls-1{fill:#850052;}.cls-2{fill:#fbae17;}</style></defs><g id="Layer_2" data-name="Layer 2"><g id="Layer_1-2" data-name="Layer 1"><path class="cls-1" d="M4.74,29l2.47-6.64L9.53,29H4.74ZM12,35.7h2.26L8.32,19.65H6.11L0,35.7H2.26l1.79-4.94h6.11Zm10.68-3.42c0,1.32-1.05,2-2.89,2a3.14,3.14,0,0,1-3-1.37l-2.16.37c.84,1.74,2.58,2.53,5,2.53C23,35.81,24.74,34,24.74,32c0-2.53-2.37-3.21-5.06-3.79-1.31-.27-2.84-.74-2.84-1.9,0-.84.79-1.79,2.42-1.79a3.05,3.05,0,0,1,2.79,1.58l1.9-.79A4.72,4.72,0,0,0,19.53,23c-2.85,0-4.69,1.36-4.69,3.58,0,2.52,2.16,3,4.27,3.47C20.9,30.49,22.63,30.91,22.63,32.28Zm6.63-12.63-2.1.89v2.95H25.21v1.69h1.95V33c-.05,1.58-.05,2.74,2.37,2.74a14.08,14.08,0,0,0,2-.21V33.91a6.2,6.2,0,0,1-1.32.27c-.89,0-.89-.63-.89-2.06V25.18h2.21V23.49H29.32V19.65Zm4.06,3.84V35.7h2V30.07a5.85,5.85,0,0,1,.53-3.16c.68-1.1,1.63-1.47,3.68-1.52V23.28a4.38,4.38,0,0,0-4.16,2.37V23.49Zm18.31-3.84v2h9.16l-9.1,12v2.11H63.42V33.81H54.11l9.1-12.11v-2H51.63Zm24.64,3.84V35.7h2V28.76A3.4,3.4,0,0,1,79.21,26a3.19,3.19,0,0,1,2.32-.95,2.63,2.63,0,0,1,2.63,1.69,8,8,0,0,1,.11,2v6.89h2V28.49A8.46,8.46,0,0,0,86.11,26a4,4,0,0,0-4-2.79,4.18,4.18,0,0,0-3.79,2.16V23.54h-2Zm31.79,9.27a2.88,2.88,0,0,1-2.85,1.57c-1.37,0-3.68-.84-3.68-4.89,0-1.11.21-4.9,3.58-4.9A2.92,2.92,0,0,1,108,26.28l1.89-.79A5.43,5.43,0,0,0,105,23.07c-3.89,0-5.79,3.11-5.79,6.58,0,3,1.63,6.32,6,6.32a5.11,5.11,0,0,0,4.63-2.42ZM66.37,28.33h6.47c-.15-3.21-2-3.73-3.26-3.73C67.84,24.6,66.63,25.86,66.37,28.33Zm8.16,5.06a5,5,0,0,1-4.69,2.52c-3.58,0-5.68-2.42-5.68-6.52,0-4.58,3-6.32,5.58-6.32,2.26,0,4.37,1.26,5.1,4.32a12.11,12.11,0,0,1,.21,2.47H66.32c-.06,2.05.79,4.63,3.68,4.58a3,3,0,0,0,2.53-1.37Zm15.16-5.06h6.47c-.16-3.21-2-3.73-3.26-3.73C91.11,24.6,89.9,25.86,89.69,28.33Zm8.1,5.06a5,5,0,0,1-4.68,2.52c-3.58,0-5.69-2.42-5.69-6.52,0-4.58,3-6.32,5.58-6.32,2.27,0,4.37,1.26,5.11,4.32a12.11,12.11,0,0,1,.21,2.47H89.53c0,2.05.79,4.63,3.68,4.58a3,3,0,0,0,2.53-1.37Zm23.32,2.31H119a10.61,10.61,0,0,1-.26-1.79,5.33,5.33,0,0,1-4.11,2c-2.37,0-4.1-1.42-4.1-3.47a3.23,3.23,0,0,1,.52-1.84c.69-1.06,2-1.85,5.63-2.16l2-.16v-.32c0-1.26,0-3.37-2.73-3.37-1.69,0-2.32.85-2.48,1.58l-1.89-.79s0-.15.1-.21A4.53,4.53,0,0,1,115.79,23,5.78,5.78,0,0,1,119.32,24a4,4,0,0,1,1.31,3.05l.11,6.26A10.11,10.11,0,0,0,121.11,35.7Zm-2.84-3.37c.31-.68.31-.94.31-2.73a28.55,28.55,0,0,0-3.21.58c-2.26.47-2.63,1.37-2.63,2.21,0,1,.79,1.79,2.32,1.79A3.29,3.29,0,0,0,118.27,32.33ZM50.21,35.7h-2.1a11.24,11.24,0,0,1-.27-1.79,5.33,5.33,0,0,1-4.1,2c-2.37,0-4.16-1.42-4.16-3.47a3.24,3.24,0,0,1,.53-1.84c.68-1.06,2-1.85,5.63-2.16l1.95-.16v-.32c0-1.26,0-3.37-2.74-3.37-1.74,0-2.32.85-2.48,1.58l-1.89-.79c.05,0,.05-.15.11-.21A4.51,4.51,0,0,1,44.9,23,5.77,5.77,0,0,1,48.42,24a4.07,4.07,0,0,1,1.32,3.05l0,6.26A14.93,14.93,0,0,0,50.21,35.7Zm-2.79-3.37c.32-.68.32-.94.32-2.73a28.16,28.16,0,0,0-3.21.58c-2.27.47-2.63,1.37-2.63,2.21,0,1,.79,1.79,2.31,1.79A3.39,3.39,0,0,0,47.42,32.33Z"/><path class="cls-2" d="M134.42,25.44l-.94.63c-3.69-2.05-11.58-6-12.27-6.31s-2-.9-1.84-2.11c.21-1.68,3.21-5.42,4.48-7C130.69,2.33,133.74-.25,135.74,0c2.16.26,3.37,2.52,3.53,13-1.21-.37-2.53-.74-4-1.11-.11-1.53-.42-3.79-.53-4.58s-.31-1.21-.63-1.26-1.42.89-2.31,1.84c-.43.42-1.58,1.58-2.85,2.9a2.3,2.3,0,0,0-2.15.68,2.1,2.1,0,0,0-.22,1.74L125,14.86c-1.42,1.42-3,2.58-3,3.16s.63.95,1.68,1.58C126.06,20.91,132.21,24.28,134.42,25.44ZM144,15a75.37,75.37,0,0,0-14.63-3.9c-2.16-.26-3,.48-2.16,2.53a34.57,34.57,0,0,0,5.53,8c2.37,2.53,4.95,3.21,5.79-.68.05-.16.05-.27.11-.43a22,22,0,0,0,.42-2.84c-1.06-.47-2.27-1-3.42-1.47.05.89.15,2.47.21,3.63v.42c.05,1.95-.58,1.95-1.69,1.16S129,15.33,128.48,13c0-.16.05-.16.1-.11s0,0,.11.06h0c.89.36,3.84,1.52,6.84,2.79,1.21.52,2.42,1,3.47,1.52s2,.95,2.74,1.32c1.32.68,1.79,1.16,1.26,1.73-2.68,2.74-12.15,6.64-15.42,11.48l0,.05c0,.05,0,.11-.11.16a0,0,0,0,1,0,0,4.77,4.77,0,0,0-.47,1.42c-.16,1.06.42,2,1.95,2.42a7.68,7.68,0,0,0,1.26.27h.26c2.9.15,10.48-1.53,12.74-2.53s1.68-2.1,1-2.63-3.16-1.9-4.42-2.58a6.26,6.26,0,0,0-.95.63c2.16,1.32,3,2,3.58,2.37.21.16.1.32-.21.37h-.21c-2.05.16-6,.42-7.84.52-.27,0-.58.06-.74.06.47-.42,1-.79,1.21-1C138.48,28.6,145.06,24.7,147,23,148.48,21.7,152.37,17.91,144,15Z"/></g></g></svg>