<svg xmlns="http://www.w3.org/2000/svg" viewBox="0 0 135.9 41.04"><defs><style>.cls-1{fill:#342b75;fill-rule:evenodd;}</style></defs><g id="Layer_2" data-name="Layer 2"><g id="Layer_1-2" data-name="Layer 1"><path class="cls-1" d="M8.84,36a20.11,20.11,0,0,1-5.7-5.65A20,20,0,0,1,0,19.67a19.64,19.64,0,1,1,35.05,12.2A22.17,22.17,0,0,1,30.42,36V24.55h1.94V32.4a22.67,22.67,0,0,0,2.85-4,18.24,18.24,0,0,0,2.24-8.8,17.82,17.82,0,1,0-35.63.12c0,4.59,1.61,8.64,5,12.65V24.55h2V36Zm3.89,2a12,12,0,0,1-1.94-.86V24.55h1.94V38Zm3.93,1a4.76,4.76,0,0,1-1-.21,7.26,7.26,0,0,1-.95-.19V11.78h1.95V39.05Zm3.92.17a4.36,4.36,0,0,1-.78,0,8.68,8.68,0,0,1-1.16,0V11.78h1.94V39.22Zm3.93-.62a17,17,0,0,1-1.94.5V11.78h1.94V38.6Zm0-28.26L19.63,6.53l-4.92,3.81L13.64,8.92l6-4.67,6,4.67-1.08,1.42Zm3.93,26.82-2,.91V24.55h2V37.16Z"/><path class="cls-1" d="M50.14,8.27V3a3.19,3.19,0,0,1,1.28-.25c1.49,0,2.35,1,2.35,2.64,0,1.94-.82,2.86-2.6,2.86ZM49.19,2H46.66v.87l1.41.25v12l-1.41.26v.81h2.4c.42,0,.95,0,1.65,0H52a7.21,7.21,0,0,0,2.72-.33A3.57,3.57,0,0,0,57,12.48a3.72,3.72,0,0,0-3.3-3.84c1.69-.83,2.48-1.86,2.48-3.31,0-2.11-1.57-3.47-3.93-3.47l-1.28.07L49.19,2Zm1,7.27h.91c2.39,0,3.51.95,3.51,3a2.92,2.92,0,0,1-3.14,3.15A2.1,2.1,0,0,1,50.14,15V9.25ZM62.7,5.86c-2.48,0-4.17,2.23-4.17,5.46,0,3,1.61,5.08,4,5.08s4.18-2.18,4.18-5.45c0-3-1.61-5.09-4-5.09Zm-.08,1c1.16,0,1.82,1.36,1.82,3.85,0,3.09-.66,4.67-1.9,4.67s-1.82-1.49-1.82-4.14.7-4.38,1.9-4.38ZM75.51,11c0-3.44-1.16-5.08-3.47-5.08S68.2,8,68.2,11.41c0,3.22,1.4,5,3.88,5,1.61,0,2.36-.53,3.39-2.39l-.91-.37c-.62.95-1.15,1.32-1.9,1.32-1.49,0-2.19-1.16-2.4-4Zm-5.25-1C70.51,7.85,71,6.9,72,6.9s1.36.86,1.45,3.09ZM51.46,37.33v-.88l-1.2-.24v-12l1.24-.25v-.87H46.75V24l1.32.21V36.24l-1.32.25v.84Zm10.74,0v-.88l-1.07-.24V29.8c0-1.7-.87-2.69-2.44-2.69A4,4,0,0,0,56,28.31V27.07h-.58l-2.56.66v.82l1.2.17v7.52l-1.2.25v.84h4.26v-.88L56,36.21V29.47a2.94,2.94,0,0,1,2-.92c.78,0,1.15.54,1.15,1.7v6L58,36.49v.84Zm9.68-8.85v-1.2l-1.7,0h-.37a1.67,1.67,0,0,1-.37,0,3.32,3.32,0,0,1-.91-.16A5,5,0,0,0,67.21,27a3.36,3.36,0,0,0-3.43,3.42,3,3,0,0,0,1.69,2.86c-1.32.83-1.86,1.48-1.86,2.23,0,.58.33,1,1.16,1.28-1.2.78-1.61,1.32-1.61,2.15,0,1.28,1.44,2.11,3.67,2.11,3,0,4.92-1.41,4.92-3.6,0-1.53-.91-2.27-2.85-2.35L66.42,35c-.62,0-.87-.16-.87-.41s.29-.58.79-.91a3.14,3.14,0,0,0,1.11.16,3.3,3.3,0,0,0,3.48-3.3,2.86,2.86,0,0,0-.75-2Zm-4.59-.63c1,0,1.49.87,1.49,2.69,0,1.53-.46,2.31-1.41,2.31S66,32.07,66,30.34s.41-2.49,1.32-2.49ZM66.67,37c3.18.21,3.64.37,3.64,1.25s-1.29,1.7-3,1.7c-1.36,0-2.19-.54-2.19-1.46A1.87,1.87,0,0,1,65.88,37l.79,0Z"/><path class="cls-1" d="M75.06,31.12c.25-2.2.78-3.1,1.74-3.1s1.36.95,1.4,3.1ZM86,16.19v-.86l-1.07-.21V8.88c0-1.86-.83-2.81-2.44-2.81a4.14,4.14,0,0,0-2.69,1.2V1h-.58l-2.56.53v.72l1.16.24v12.6l-1.24.26v.81H80.8v-.86l-1-.21V8.47a2.74,2.74,0,0,1,1.9-.92c.87,0,1.2.54,1.2,2v5.58l-1,.21v.81ZM90.52,6H89.9l-2.48.65v.67l1.2.21v7.59l-1.2.26v.81H92v-.86l-1.44-.21V9.71A2.37,2.37,0,0,1,91.84,8l1.08.58a1.59,1.59,0,0,0,.78-1.23,1.11,1.11,0,0,0-1.2-1.2c-.74,0-1.16.37-2,1.78V6Zm6.16-5a1.31,1.31,0,0,0-1.33,1.32,1.33,1.33,0,1,0,2.65,0A1.31,1.31,0,0,0,96.68,1ZM99,16.19v-.86l-1.16-.21v-9h-.49l-2.61.67v.7l1.12.25v7.43l-1.12.26v.81ZM80.35,32.07a11.66,11.66,0,0,0-.29-2.57A3.16,3.16,0,0,0,76.84,27c-2.4,0-3.85,2-3.85,5.45,0,3.18,1.41,5.05,3.89,5.05,1.61,0,2.48-.62,3.43-2.41l-.91-.37c-.62,1-1.16,1.33-1.94,1.33-1.49,0-2.19-1.16-2.4-4Zm5.5,5.26v-.88l-1.12-.24V22.11h-.54l-2.6.58v.7l1.16.12V36.24l-1.2.25v.84Zm10.79,0v-.88l-1.12-.24V29.84c0-1.69-.87-2.64-2.4-2.64a3.94,3.94,0,0,0-2.73,1.19V22.11h-.54l-2.6.58v.7l1.16.21V36.24l-1.2.25v.84h4.17v-.88l-1-.24V29.59a2.94,2.94,0,0,1,1.9-.95c.87,0,1.2.54,1.2,2v5.62l-1,.21v.84Zm8.67-5.26A11.66,11.66,0,0,0,105,29.5,3.15,3.15,0,0,0,101.8,27c-2.4,0-3.84,2-3.84,5.45,0,3.18,1.4,5.05,3.88,5.05,1.61,0,2.48-.62,3.43-2.41l-.91-.37c-.62,1-1.15,1.33-1.94,1.33-1.49,0-2.19-1.16-2.4-4ZM100,31.12c.25-2.2.79-3.1,1.74-3.1s1.36.95,1.4,3.1Z"/><path class="cls-1" d="M114.86,6.74c1,0,1.49.86,1.49,2.68,0,1.53-.46,2.31-1.41,2.31s-1.4-.78-1.4-2.51.41-2.48,1.32-2.48Zm-5,9.45v-.86l-1.08-.25V8.67c0-1.69-.86-2.67-2.43-2.67a4,4,0,0,0-2.73,1.18V6H103l-2.56.66v.83l1.19.16v7.52l-1.19.26v.81h4.25v-.86l-1.07-.25V8.34a3,3,0,0,1,1.94-.9c.79,0,1.16.53,1.16,1.69v6l-1.08.21v.81Zm9.63-8.84V6.16l-1.7,0h-.37a2.14,2.14,0,0,1-.37,0,3,3,0,0,1-.91-.16,5.41,5.41,0,0,0-1.32-.21,3.38,3.38,0,0,0-3.43,3.44A3,3,0,0,0,113,12.15c-1.32.82-1.86,1.49-1.86,2.19s.33,1,1.16,1.32c-1.16.74-1.61,1.32-1.61,2.16,0,1.28,1.44,2.09,3.68,2.09,3,0,4.92-1.39,4.92-3.58,0-1.53-.91-2.28-2.86-2.36L114,13.85c-.62,0-.86-.17-.86-.47s.29-.53.78-.86a3.41,3.41,0,0,0,1.12.17,3.31,3.31,0,0,0,3.47-3.31,2.89,2.89,0,0,0-.75-2Zm-6,8.47c4.09.26,4.42.34,4.42,1.28s-1.28,1.7-3,1.7c-1.36,0-2.19-.54-2.19-1.44a1.91,1.91,0,0,1,.75-1.54ZM127.92,11c0-3.44-1.16-5.08-3.47-5.08s-3.84,2.06-3.84,5.5c0,3.22,1.4,5,3.88,5,1.61,0,2.36-.53,3.39-2.39l-.91-.37c-.62.95-1.16,1.32-1.9,1.32-1.49,0-2.19-1.16-2.4-4Zm-5.25-1c.25-2.14.75-3.09,1.7-3.09s1.36.86,1.44,3.09Zm10-4h-.62l-2.48.65v.67l1.19.21v7.59l-1.19.26v.81h4.58v-.86l-1.44-.21V9.71A2.37,2.37,0,0,1,134,8l1.07.58a1.58,1.58,0,0,0,.79-1.23,1.11,1.11,0,0,0-1.2-1.2c-.74,0-1.16.37-2,1.78V6ZM109,22.11a1.38,1.38,0,0,0-1.4,1.36,1.29,1.29,0,0,0,1.32,1.32,1.37,1.37,0,0,0,1.36-1.35A1.32,1.32,0,0,0,109,22.11Zm2.23,15.22v-.88L110,36.21v-9h-.5l-2.61.65v.67l1.12.24v7.48l-1.12.25v.84h20.46v-.88l-1.15-.24V30.13c0-2.07-.75-2.93-2.52-2.93a3.89,3.89,0,0,0-2.86,1.35,2.53,2.53,0,0,0-2.31-1.32,4.13,4.13,0,0,0-2.81,1.2V27.07h-.54l-2.6.66v.7l1.2.21v7.6l-1.2.25v.84h4.21v-.88l-1-.24V29.55a2.5,2.5,0,0,1,1.86-.95c.91,0,1.33.58,1.33,1.85v5.79l-1.16.25v.84h4.17v-.88l-1-.24V29.59c.83-.74,1.28-1,1.94-1,.87,0,1.24.53,1.24,1.9v5.74l-1.12.25v.84h-11.9Z"/></g></g></svg>