<svg xmlns="http://www.w3.org/2000/svg" viewBox="0 0 31.2 31.08"><defs><style>.cls-1{fill:#1d215d;}</style></defs><g id="Layer_2" data-name="Layer 2"><g id="Layer_1-2" data-name="Layer 1"><path class="cls-1" d="M3.85,23.72c0-2,0-3.94,0-5.9a1.42,1.42,0,0,1,.56-1.23Q9.71,12,15,7.48a.67.67,0,0,1,1.05,0q5.23,4.52,10.51,9a1.75,1.75,0,0,1,.66,1.46c0,3.87,0,7.74,0,11.61,0,1.27-.26,1.53-1.5,1.53h-5c-1,0-1.38-.32-1.38-1.39,0-2.94,0-5.88,0-8.82,0-1.17-.21-1.38-1.39-1.39H13c-1,0-1.25.27-1.25,1.25,0,2.92,0,5.84,0,8.76,0,1.33-.27,1.59-1.59,1.59H5.16c-1,0-1.29-.32-1.3-1.31,0-2,0-4,0-6.05Z"/><path class="cls-1" d="M31,13.59a1.94,1.94,0,0,1-3.2,1.5L20.62,8.92c-1.55-1.33-3.1-2.64-4.63-4a.58.58,0,0,0-.92,0L3.74,14.66c-.21.17-.41.36-.63.51a2,2,0,0,1-2.69-.3,2,2,0,0,1,.24-2.7C3.05,10.09,5.46,8,7.86,6,9.92,4.2,12,2.43,14,.68a2,2,0,0,1,3,0q6.66,5.69,13.28,11.4a5.79,5.79,0,0,1,.91,1.41Z"/></g></g></svg>