<svg xmlns="http://www.w3.org/2000/svg" xmlns:xlink="http://www.w3.org/1999/xlink" viewBox="0 0 125.68 52.87"><defs><style>.cls-1{fill:none;}.cls-2{clip-path:url(#clip-path);}.cls-3{fill:url(#linear-gradient);}.cls-4{fill:#033477;}.cls-5{fill:#929497;}.cls-6{fill:#ec1c24;}</style><clipPath id="clip-path"><path class="cls-1" d="M106.59,25.62a35.29,35.29,0,0,1-12.2,27.25c11.62-2.44,20.5-15.27,20.5-29.09,0-1.13,0-2.26,0-3.27l9-3.06c1.13-.39,1.86-1,1.86-2.09,0-.74,0-1.12,0-1.12-4.85-.09-22.44-.67-22.44-.67a23.46,23.46,0,0,1,3.35,12.05m-4-15.18a43.53,43.53,0,0,0,13.34.28s-1.17-4.33-4.57-4.35a72.59,72.59,0,0,1-9.18-.57C90.65,4.05,87.67,0,87.67,0c.67,4.48,7.53,9.33,14.88,10.44"/></clipPath><linearGradient id="linear-gradient" x1="-1941.73" y1="1531.48" x2="-1940.68" y2="1531.48" gradientTransform="matrix(35.96, 0, 0, -35.96, 69921.77, 55105.95)" gradientUnits="userSpaceOnUse"><stop offset="0" stop-color="#00b2ee"/><stop offset="0.2" stop-color="#00b2ee"/><stop offset="0.62" stop-color="#0263a3"/><stop offset="0.9" stop-color="#033477"/><stop offset="1" stop-color="#033477"/></linearGradient></defs><g id="Layer_2" data-name="Layer 2"><g id="Layer_1-2" data-name="Layer 1"><g class="cls-2"><rect class="cls-3" x="87.67" width="38.01" height="52.87"/></g><path class="cls-4" d="M0,32V30.37c1.56-.57,2.7-2,2.7-5.16v-14H5.11V25C5.11,29.28,2.62,31.66,0,32"/><path class="cls-4" d="M14,26.17c-3.83,0-5.6-1.67-5.6-4.35,0-3.91,3.66-5.05,8.22-5.51v-.92c0-2.26-1.36-2.92-3.25-2.92a8.07,8.07,0,0,0-3.55.94L9.27,12a9.6,9.6,0,0,1,4.5-1.09c2.74,0,5.14,1.17,5.14,4.78v9.45A10.18,10.18,0,0,1,14,26.17m2.62-8.64c-3.71.47-5.93,1.25-5.93,4.24,0,2.13,1.31,3,3.5,3a5.44,5.44,0,0,0,2.43-.49Z"/><path class="cls-4" d="M31.08,25.89V15.32c0-1.38-.58-2.87-3.09-2.87A6.27,6.27,0,0,0,25.2,13V25.89H22.79v-14a12.14,12.14,0,0,1,5.39-1c4.09,0,5.3,2.27,5.3,4.37V25.89Z"/><path class="cls-4" d="M40.23,26.11a6.44,6.44,0,0,1-3.77-1l.65-1.58a4.62,4.62,0,0,0,2.87.87,2.55,2.55,0,0,0,2.74-2.53c0-1.53-.83-2.21-2.44-2.82-2.87-1.06-3.44-2.59-3.44-4.13a4.11,4.11,0,0,1,4.4-4,6.11,6.11,0,0,1,3.44,1l-.63,1.45a4.13,4.13,0,0,0-2.46-.83,2.27,2.27,0,0,0-2.46,2.34c0,1.42,1,2.1,2.46,2.65,2.88,1.08,3.59,2.62,3.59,4.31,0,2.25-2,4.32-5,4.32"/><path class="cls-4" d="M51,26.11a6.47,6.47,0,0,1-3.78-1l.66-1.58a4.62,4.62,0,0,0,2.87.87,2.54,2.54,0,0,0,2.73-2.53c0-1.53-.82-2.21-2.43-2.82-2.87-1.06-3.44-2.59-3.44-4.13a4.11,4.11,0,0,1,4.4-4,6.11,6.11,0,0,1,3.44,1l-.63,1.45a4.13,4.13,0,0,0-2.46-.83,2.27,2.27,0,0,0-2.46,2.34c0,1.42,1,2.1,2.46,2.65,2.87,1.08,3.58,2.62,3.58,4.31C55.94,24,54,26.11,51,26.11"/><path class="cls-4" d="M60.86,19.45c.27,3.33,1.83,5,4.48,5A7.3,7.3,0,0,0,69,23.57l.63,1.59a9,9,0,0,1-4.46,1c-3.85,0-6.56-2.43-6.56-7.68,0-5,2.46-7.6,5.93-7.6s5.66,2.3,5.61,7.21Zm3.58-7c-2.13,0-3.72,1.72-3.66,5.71l7-1.08c0-3.33-1.29-4.63-3.39-4.63"/><path class="cls-4" d="M81.71,25.89V15.32c0-1.38-.57-2.87-3.08-2.87a6.3,6.3,0,0,0-2.79.51V25.89H73.43v-14a12.14,12.14,0,0,1,5.39-1c4.09,0,5.3,2.27,5.3,4.37V25.89Z"/><path class="cls-5" d="M9.86,33.29a.91.91,0,0,1,1.05,1c0,.74-.65,1-1.17,1H9.15v1H8.42V33.29Zm-.71,1.43h.48c.33,0,.56-.07.56-.47s-.35-.41-.58-.41H9.15Z"/><polygon class="cls-5" points="13.16 36.21 13.16 34.96 12.1 34.96 12.1 36.21 11.37 36.21 11.37 33.3 12.1 33.3 12.1 34.36 13.16 34.36 13.16 33.3 13.89 33.3 13.89 36.21 13.16 36.21"/><path class="cls-5" d="M16.47,36.21l-.15-.46H15.25l-.15.46h-.77l1.08-2.91h.75l1.08,2.91ZM15.78,34l-.36,1.23h.74Z"/><path class="cls-5" d="M19.06,33.3c.43,0,1.11.12,1.11.94a.78.78,0,0,1-.59.81l.67,1.16h-.8l-.58-1h-.46v1h-.73V33.3Zm-.65,1.34H19a.39.39,0,0,0,.44-.41c0-.38-.3-.39-.43-.39h-.61Z"/><path class="cls-5" d="M23.4,36.21s0-1.6,0-2.18l-.61,2.18h-.63L21.58,34c0,.41,0,2.18,0,2.18h-.71V33.3H22l.55,2,.54-2H24.1v2.91Z"/><path class="cls-5" d="M26.67,36.21l-.14-.46H25.45l-.14.46h-.77l1.08-2.91h.75l1.08,2.91ZM26,34l-.35,1.23h.73Z"/><path class="cls-5" d="M30.25,35.55A1.42,1.42,0,0,1,29,36.3a1.4,1.4,0,0,1-1.4-1.55A1.44,1.44,0,0,1,29,33.22a1.35,1.35,0,0,1,1.23.74l-.57.29A.7.7,0,0,0,29,33.8c-.46,0-.71.44-.71.93,0,.65.32,1,.71,1a.7.7,0,0,0,.64-.44Z"/><polygon class="cls-5" points="30.77 33.3 32.92 33.3 32.92 33.87 31.49 33.87 31.49 34.4 32.83 34.4 32.83 34.94 31.49 34.94 31.49 35.65 33.05 35.65 33.05 36.21 30.77 36.21 30.77 33.3"/><path class="cls-5" d="M36.09,35.06a1.16,1.16,0,0,1-1.26,1.22,1.11,1.11,0,0,1-1.23-1.16V33.3h.74v1.89c0,.39.19.48.52.48s.5-.18.5-.51V33.3h.73Z"/><polygon class="cls-5" points="37.98 33.88 37.98 36.21 37.25 36.21 37.25 33.88 36.49 33.88 36.49 33.3 38.74 33.3 38.74 33.88 37.98 33.88"/><rect class="cls-5" x="39.21" y="33.3" width="0.73" height="2.92"/><path class="cls-5" d="M43.09,35.55a1.42,1.42,0,0,1-1.25.75,1.4,1.4,0,0,1-1.4-1.55,1.44,1.44,0,0,1,1.41-1.53,1.36,1.36,0,0,1,1.23.74l-.58.29a.66.66,0,0,0-.61-.45c-.48,0-.72.44-.72.93,0,.65.32,1,.72,1a.7.7,0,0,0,.63-.44Z"/><path class="cls-5" d="M45.29,36.21l-.14-.46H44.07l-.14.46h-.77l1.08-2.91H45l1.08,2.91ZM44.6,34l-.36,1.23H45Z"/><polygon class="cls-5" points="46.42 36.21 46.42 33.3 47.15 33.3 47.15 35.61 48.29 35.61 48.29 36.21 46.42 36.21"/><path class="cls-5" d="M52.52,35.55a1.43,1.43,0,0,1-1.26.75,1.4,1.4,0,0,1-1.39-1.55,1.44,1.44,0,0,1,1.41-1.53,1.35,1.35,0,0,1,1.23.74l-.58.29a.67.67,0,0,0-.62-.45c-.47,0-.71.44-.71.93,0,.65.32,1,.71,1a.7.7,0,0,0,.64-.44Z"/><path class="cls-5" d="M54.28,33.22a1.54,1.54,0,0,1,0,3.08,1.44,1.44,0,0,1-1.45-1.56,1.42,1.42,0,0,1,1.44-1.52m0,2.46c.55,0,.74-.5.74-.91s-.23-1-.75-1-.72.53-.72.91.21,1,.73,1"/><path class="cls-5" d="M58.88,36.21s0-1.6,0-2.18l-.6,2.18h-.64L57.06,34c0,.41,0,2.18,0,2.18h-.71V33.3h1.06l.55,2,.54-2h1.07v2.91Z"/><path class="cls-5" d="M61.78,33.29c.69,0,1.06.34,1.06,1s-.65,1-1.18,1h-.59v1h-.73V33.29Zm-.71,1.43h.48c.33,0,.56-.07.56-.47s-.35-.41-.57-.41h-.47Z"/><path class="cls-5" d="M64.89,36.21l-.15-.46H63.67l-.15.46h-.77l1.08-2.91h.76l1.07,2.91ZM64.2,34l-.36,1.23h.74Z"/><polygon class="cls-5" points="67.75 36.21 66.72 34.47 66.72 36.21 66.01 36.21 66.01 33.3 66.73 33.3 67.76 35.08 67.76 33.3 68.46 33.3 68.46 36.21 67.75 36.21"/><rect class="cls-5" x="69.35" y="33.3" width="0.72" height="2.92"/><polygon class="cls-5" points="70.96 33.3 73.12 33.3 73.12 33.87 71.69 33.87 71.69 34.4 73.02 34.4 73.02 34.94 71.69 34.94 71.69 35.65 73.25 35.65 73.25 36.21 70.96 36.21 70.96 33.3"/><path class="cls-5" d="M75.71,34.17a1,1,0,0,0-.77-.37c-.29,0-.43.17-.43.32s.12.23.37.27l.32,0c.76.1,1.08.33,1.08.83s-.5,1-1.33,1a1.56,1.56,0,0,1-1.33-.59l.55-.35a1.11,1.11,0,0,0,.85.36c.21,0,.53-.08.53-.33s-.24-.26-.5-.3l-.34,0c-.51-.08-.93-.32-.93-.82s.43-1,1.18-1a1.76,1.76,0,0,1,1.28.54Z"/><path class="cls-5" d="M80,33.2a1.54,1.54,0,1,1-1.44,1.52A1.42,1.42,0,0,1,80,33.2m0,2.46c.54,0,.73-.5.73-.92s-.23-.94-.74-.94-.72.53-.72.91.2.95.73.95"/><polygon class="cls-5" points="84.21 33.37 84.21 33.93 82.7 33.93 82.7 34.54 84.09 34.54 84.09 35.11 82.7 35.11 82.7 36.28 81.97 36.28 81.97 33.37 84.21 33.37"/><path class="cls-6" d="M11.69,39.65c0,.09-.19.47-.44,1.15a8.72,8.72,0,0,0-.51,3,20.32,20.32,0,0,0,.33,2.67l-.44.59a5,5,0,0,1-1.14-3.46c0-2.34,1.42-4,2.14-4,0,0,.06,0,.06.06m19.57,6.56a1.83,1.83,0,0,1,.12.61c0,.22-.08.44-.23.44s-.22-.12-.22-.31a1.62,1.62,0,0,1,.33-.74m-20.07.93a14.48,14.48,0,0,1,.21,2C11.4,50.46,11,52,10.2,52c-.28,0-.53-.3-.55-.8a6.58,6.58,0,0,1,1.54-4m22.64-3a2.36,2.36,0,0,0-.43,1.41,2,2,0,0,0,1.94,2.25,2.14,2.14,0,0,0,2.1-2.34,2.73,2.73,0,0,0,0-.62,2.87,2.87,0,0,0,.73-.47.81.81,0,0,1,.38-.19c.13,0,.18.1.18.28v2.7c0,.43.14.64.48.64a.76.76,0,0,0,.67-.49c.45-.94,1.11-2.21,1.39-2.69.07-.1.13-.19.17-.19s.08,0,.08.22v2.14c0,.61.28,1,.88,1s1-.6,1.5-1.53a.34.34,0,0,0,0-.15.21.21,0,0,0-.22-.19c-.13,0-.19.12-.6.59-.08.07-.17.2-.32.2s-.1-.07-.1-.16V44.15c0-.64-.28-.9-.66-.9a1,1,0,0,0-.81.51A23.16,23.16,0,0,0,40,45.92s-.07.13-.1.13,0,0,0-.13V44.15c0-.51-.14-.9-.68-.9s-.85.39-1.26.67a4.88,4.88,0,0,1-.67.42A1.44,1.44,0,0,0,36,43.29a.69.69,0,0,0-.73.71.94.94,0,0,0,.64.91,1.6,1.6,0,0,0,.68.1h.21a1.89,1.89,0,0,1,0,.48,1.21,1.21,0,0,1-1.14,1.34c-.77,0-1.22-.74-1.22-1.59A2.39,2.39,0,0,1,35,43.67c.12-.13.21-.22.21-.34s-.09-.08-.17-.08a3.6,3.6,0,0,0-1.5.43,10.1,10.1,0,0,0-1.65,1.18c-.25-.53-.55-1-.7-1.4-.06-.14-.1-.32-.21-.32s-.14.1-.21.28a16.37,16.37,0,0,1-1.85,3.15s-.06.09-.08.09,0,0,0-.1V44.15c0-.64-.26-.9-.62-.9a.93.93,0,0,0-.81.51c-.45.68-1,1.69-1.27,2.19,0,.09-.08.1-.09.1s0,0,0-.13V44.15c0-.64-.26-.9-.62-.9a.9.9,0,0,0-.82.51c-.58,1-1.54,2.48-1.72,2.73l-.08.07s0,0,0-.09V44.15c0-.64-.25-.9-.61-.9s-.77.45-.95.74-.57.93-.84,1.43a2.45,2.45,0,0,1-.38.63s0-.12,0-.35V43.86a5.12,5.12,0,0,0,1.4-3.44c0-.74-.33-1.15-.83-1.15-1,0-1.68,1.47-1.68,3.23v1.43a3.56,3.56,0,0,1-1.37.51,1.48,1.48,0,0,0-1.24-1.15.69.69,0,0,0-.73.71c0,.74.71,1,1.34,1H17a2.08,2.08,0,0,1,0,.44,1.22,1.22,0,0,1-1.14,1.34c-.77,0-1.23-.74-1.23-1.59a2.45,2.45,0,0,1,.51-1.56.65.65,0,0,0,.22-.34c0-.07-.09-.08-.18-.08-.52,0-1.67.69-3,2.08a28.15,28.15,0,0,1-.27-3.22,11.72,11.72,0,0,1,.29-2.45,2.54,2.54,0,0,0,0-.37c0-.1-.06-.16-.21-.16-1.12,0-3.56,1.77-3.56,4.43A4.85,4.85,0,0,0,10.3,47.5,7.88,7.88,0,0,0,9,51.31c0,.89.21,1.56.87,1.56,1.37,0,2.4-2.86,2.4-5,0-.64,0-1.27-.07-1.89a8.88,8.88,0,0,1,1.48-1.35,3.44,3.44,0,0,0-.14.89,2,2,0,0,0,1.94,2.25,2.17,2.17,0,0,0,2.1-2.34,3.91,3.91,0,0,0,0-.49,4.07,4.07,0,0,0,1.23-.42V47.3a.46.46,0,0,0,.48.5c.31,0,.48-.22.71-.73s.72-1.36,1-1.93.39-.72.5-.72.05.07.05.23V47c0,.63.33.79.62.79a.75.75,0,0,0,.63-.4c.72-1,1.48-2.23,1.77-2.75.06-.09.13-.16.18-.16s.09,0,.09.2v2.47c0,.43.13.64.48.64a.71.71,0,0,0,.64-.49c.46-.94,1.13-2.2,1.42-2.69.07-.1.14-.2.18-.2s.07.07.07.24V47c0,.63.33.79.62.79s.63-.28.88-.58a27.5,27.5,0,0,0,1.5-2.34,4.29,4.29,0,0,1,.42.77A2.33,2.33,0,0,0,30.38,47a.76.76,0,0,0,.73.81,1.34,1.34,0,0,0,1.21-1.45,3.17,3.17,0,0,0-.22-1,4.8,4.8,0,0,1,1.73-1.21m-13.95-2c0-2.06.4-2.37.52-2.37s.24.14.24.93a4.78,4.78,0,0,1-.76,2.44Zm-3.83,2a.18.18,0,0,1,.19-.2c.17,0,.44.2.59.58-.51,0-.78-.12-.78-.38m19.87,0a.18.18,0,0,1,.19-.2c.18,0,.45.2.6.58h-.19c-.33,0-.6-.15-.6-.39"/><path class="cls-6" d="M47,46.38a4.09,4.09,0,0,1-.61,0c-.54,0-.94-.2-.94-.51s.1-.3.37-.3a1.6,1.6,0,0,1,1.18.78m2.71.14a7.4,7.4,0,0,0,.91,1,7.78,7.78,0,0,0-1.31,3.81c0,.89.21,1.56.87,1.56,1.37,0,2.4-2.86,2.4-5,0-.64,0-1.27-.08-1.89A9.76,9.76,0,0,1,54,44.66a3.42,3.42,0,0,0-.13.89,2,2,0,0,0,1.94,2.25,2.17,2.17,0,0,0,2.1-2.34,3.91,3.91,0,0,0,0-.49,3.92,3.92,0,0,0,1.22-.42V47.3a.46.46,0,0,0,.48.5c.32,0,.48-.22.72-.73s.71-1.36,1-1.93.39-.72.49-.72.06.07.06.23V47c0,.63.33.79.61.79a.76.76,0,0,0,.64-.4c.71-1,1.47-2.23,1.77-2.75,0-.09.12-.16.18-.16s.08,0,.08.2v2.47c0,.43.14.64.48.64a.73.73,0,0,0,.65-.49c.45-.94,1.13-2.2,1.41-2.69.07-.1.14-.2.19-.2s.06.07.06.24V47c0,.63.33.79.62.79a1.17,1.17,0,0,0,.88-.58,27.58,27.58,0,0,0,1.51-2.34,6.06,6.06,0,0,1,.42.77A2.27,2.27,0,0,0,70.69,47a.75.75,0,0,0,.72.81,1.34,1.34,0,0,0,1.21-1.45,2.92,2.92,0,0,0-.22-1,4.83,4.83,0,0,1,1.74-1.21,2.36,2.36,0,0,0-.43,1.41,2,2,0,0,0,1.93,2.25,2.15,2.15,0,0,0,2.11-2.34,3.52,3.52,0,0,0,0-.62,3.06,3.06,0,0,0,.73-.47.77.77,0,0,1,.38-.19c.13,0,.18.1.18.28v2.7c0,.43.14.64.48.64a.73.73,0,0,0,.66-.49c.45-.94,1.11-2.21,1.4-2.69.08-.1.13-.19.17-.19s.08,0,.08.22v2.14c0,.61.27,1,.88,1s1-.6,1.5-1.53a.56.56,0,0,0,0-.15.21.21,0,0,0-.22-.19c-.13,0-.19.12-.61.59-.08.07-.16.2-.31.2s-.1-.07-.1-.16V44.15c0-.64-.29-.9-.66-.9a.94.94,0,0,0-.81.51,21.34,21.34,0,0,0-1.21,2.16s-.06.13-.1.13,0,0,0-.13V44.15c0-.51-.14-.9-.68-.9s-.85.39-1.26.67a5.56,5.56,0,0,1-.68.42,1.43,1.43,0,0,0-1.21-1.05.7.7,0,0,0-.73.71,1,1,0,0,0,.65.91,1.6,1.6,0,0,0,.68.1h.21a2.5,2.5,0,0,1,0,.48A1.22,1.22,0,0,1,76,46.82c-.76,0-1.21-.74-1.21-1.59a2.45,2.45,0,0,1,.5-1.56c.12-.13.22-.22.22-.34s-.1-.08-.18-.08a3.6,3.6,0,0,0-1.49.43,9.31,9.31,0,0,0-1.65,1.18c-.25-.53-.55-1-.7-1.4-.06-.14-.1-.32-.21-.32s-.14.1-.2.28a16.9,16.9,0,0,1-1.86,3.15s-.07.09-.09.09,0,0,0-.1V44.15c0-.64-.27-.9-.62-.9a.93.93,0,0,0-.82.51c-.45.68-1,1.69-1.26,2.19,0,.09-.08.1-.09.1s0,0,0-.13V44.15c0-.64-.26-.9-.62-.9a.92.92,0,0,0-.83.51c-.57,1-1.54,2.48-1.71,2.73a.31.31,0,0,1-.09.07s0,0,0-.09V44.15c0-.64-.26-.9-.62-.9s-.77.45-.94.74-.58.93-.84,1.43c-.18.34-.33.63-.39.63s0-.12,0-.35V43.86a5.17,5.17,0,0,0,1.4-3.44c0-.74-.33-1.15-.84-1.15-1,0-1.68,1.47-1.68,3.23v1.43a3.51,3.51,0,0,1-1.36.51,1.48,1.48,0,0,0-1.25-1.15.69.69,0,0,0-.72.71c0,.74.7,1,1.34,1h.18a2.08,2.08,0,0,1,0,.44,1.23,1.23,0,0,1-1.15,1.34c-.76,0-1.22-.74-1.22-1.59a2.45,2.45,0,0,1,.51-1.56.73.73,0,0,0,.22-.34c0-.07-.1-.08-.18-.08-.52,0-1.68.69-3,2.08a30.53,30.53,0,0,1-.26-3.22,11.72,11.72,0,0,1,.29-2.45,2.21,2.21,0,0,0,0-.37c0-.1-.05-.16-.21-.16-1.11,0-3.55,1.77-3.55,4.43a4.66,4.66,0,0,0,.64,2.52,1.8,1.8,0,0,0-.38,0,4.82,4.82,0,0,0-1.12.17V46a3.16,3.16,0,0,0-.39-1.68.12.12,0,0,0-.1-.05,1,1,0,0,0-.4.14c-.17.08-.33.17-.33.23s0,0,0,.11a2,2,0,0,1,.45,1.07,2.24,2.24,0,0,0-1.7-.68c-.82,0-1.07.37-1.07.74,0,.71,1,1.08,2.15,1.08a3.24,3.24,0,0,0,.71-.11c0,.22,0,.43,0,.59s0,.41.2.41.37-.47.39-1.14a4.84,4.84,0,0,1,1.24-.2,5,5,0,0,1,.62.06M52,39.65c0,.09-.19.47-.44,1.15a8.75,8.75,0,0,0-.5,3,20.32,20.32,0,0,0,.33,2.67l-.44.59a4.94,4.94,0,0,1-1.14-3.46c0-2.34,1.41-4,2.14-4,0,0,.05,0,.05.06m19.57,6.56a1.63,1.63,0,0,1,.13.61c0,.22-.09.44-.24.44s-.21-.12-.21-.31a1.59,1.59,0,0,1,.32-.74m-20.06.93a14.34,14.34,0,0,1,.2,2c0,1.31-.43,2.86-1.19,2.84-.29,0-.53-.3-.55-.8a6.52,6.52,0,0,1,1.54-4m8.69-5c0-2.06.39-2.37.52-2.37s.25.14.25.93a4.79,4.79,0,0,1-.77,2.44Zm-3.84,2a.19.19,0,0,1,.19-.2c.18,0,.45.2.59.58-.51,0-.78-.12-.78-.38m19.87,0a.18.18,0,0,1,.2-.2c.17,0,.45.2.6.58h-.2c-.32,0-.6-.15-.6-.39"/></g></g></svg>