<svg xmlns="http://www.w3.org/2000/svg" viewBox="0 0 540.81 254.53"><defs><style>.cls-1{fill:#fff;}.cls-2{fill:#1998d5;}.cls-3{fill:#ed3d89;}.cls-4{fill:#941b81;}.cls-5{fill:#ffd41a;}.cls-6{fill:#f58a28;}.cls-7{fill:#ed3f36;}</style></defs><g id="Layer_2" data-name="Layer 2"><g id="Layer_1-2" data-name="Layer 1"><path class="cls-1" d="M26.87,208.83c-8.56,0-17.57-2.66-22.74-6.2C1.18,200.56,0,198.5,0,196.43c0-2.51,2.36-5.61,4.87-5.61,1.63,0,2.81.74,4.43,1.92,4.43,3.1,11.07,5.9,17.57,5.9,10.33,0,16.09-4.42,16.09-11.36,0-8.12-7.38-10-16.83-12.11C8.27,171.34,1.18,165,1.18,153c0-13.58,11.22-22.44,27.16-22.44,8.57,0,15.5,2.51,19.64,5.46,3.1,2.07,4.28,3.69,4.28,5.61,0,2.51-2.22,5.76-5,5.76-1.48,0-2.51-.59-4.28-1.77a25.1,25.1,0,0,0-15.06-4.87c-11.37,0-15.79,5.75-15.79,11.51,0,9.15,8.85,11.07,19.19,13.29,14.76,3.24,22.58,8.41,22.58,21S43.7,208.83,26.87,208.83Z"/><path class="cls-1" d="M94.87,208.83c-10.77,0-17.56-5.46-21-11.37v36.17c0,3.4-2.21,4.87-5.75,4.87S63,237,63,233.48v-97c0-3.55,1.92-5,5.31-5,3.55,0,5.61,1.62,5.61,5v4.87c3.1-5.46,10.48-10.78,20.67-10.78,19.78,0,32.18,14,32.18,38.53S114.21,208.83,94.87,208.83ZM94,140.78c-12.11,0-20.08,9.3-20.08,21.7v14.46c0,12.26,7.68,21.7,20.08,21.7,13.14,0,21.85-11.21,21.85-29.52C115.84,151.55,107.86,140.78,94,140.78Z"/><path class="cls-1" d="M187.53,173.4H142.81c.44,15.5,10.18,25.24,23.17,25.24a27.49,27.49,0,0,0,15.35-4.42q3.55-2.22,5.32-2.22c2.8,0,4.87,3.1,4.87,5.32s-1,3.83-5.9,6.64a39.54,39.54,0,0,1-19.79,4.87c-21.84,0-34.1-15.94-34.1-38.38,0-21.55,11.22-39.86,33.51-39.86,18.75,0,29.82,13.73,29.82,33.66C195.06,169.12,193.14,173.4,187.53,173.4Zm-44.43-10h41c0-11.81-6.2-22.58-19-22.58C151.66,140.78,144.13,151.11,143.1,163.36Z"/><path class="cls-1" d="M258.94,143.14c0,2.66-2.51,5.46-5.17,5.46-1.48,0-2.66-.74-4.58-2.21a23.91,23.91,0,0,0-15.64-5.61c-13.44,0-23.18,10.33-23.18,28.93,0,18.45,9.45,28.93,22.73,28.93,6.5,0,11.67-2.51,16.24-5.9,1.77-1.33,2.95-2.21,4.58-2.21,3.1,0,5.16,3.09,5.16,5.46,0,1.62-1.47,3.69-4,5.75-4.58,3.69-13,7.09-22.29,7.09-20.08,0-33.36-15.65-33.36-39.12,0-24.5,14.91-39.12,34.39-39.12,11.66,0,18.9,4.28,23.18,8.56A5.58,5.58,0,0,1,258.94,143.14Z"/><path class="cls-1" d="M352.35,142.11a9.4,9.4,0,0,1-3-.45,20.11,20.11,0,0,0-4.72-.73c-10,0-17.42,7.67-17.42,21.1v40.75c0,3.69-1.77,5.16-5.46,5.16-3.4,0-5.47-1.47-5.47-5.16V136.35c0-3.4,2.07-4.87,5.47-4.87s5.46,1.33,5.46,4.87v5a19.71,19.71,0,0,1,18.16-10.78,17.84,17.84,0,0,1,7.67,1.33c2.22,1,3.25,2.51,3.25,4.43C356.34,139.6,354.57,142.11,352.35,142.11Z"/><path class="cls-1" d="M418.92,207.94c-3.55,0-5.47-1.47-5.47-5v-7.08c-4.57,8-12.54,13-23.47,13-17.42,0-25.39-12.25-25.39-27.9V136.5c0-3.55,1.77-5,5.32-5s5.61,1.47,5.61,5v43.4c0,10.33,5.31,18.74,16.68,18.74,13.14,0,21.25-9.44,21.25-24.65V136.5c0-3.55,1.92-5,5.47-5s5.46,1.47,5.46,5v66.42C424.38,206.47,422.46,207.94,418.92,207.94Z"/><path class="cls-1" d="M540.81,202.92c0,3.55-1.78,5-5.32,5s-5.61-1.47-5.61-5V158.34c0-10.18-5.61-17.41-16.24-17.41-9.74,0-18.74,6.34-18.74,23.47v38.52c0,3.55-1.78,5-5.32,5s-5.46-1.47-5.46-5V158.34c0-10.33-5.46-17.41-15.94-17.41-11.22,0-19.05,8-19.05,23.47v38.52c0,3.55-1.91,5-5.46,5s-5.46-1.47-5.46-5V136.5c0-3.55,1.92-5,5.46-5s5.46,1.47,5.46,5v5.9A24.1,24.1,0,0,1,470,130.59c10.48,0,17.86,4.43,22.14,13.43,4-7.38,11.66-13.43,23-13.43,16.53,0,25.69,10.34,25.69,26.28Z"/><path class="cls-2" d="M302.47,243.56a11.85,11.85,0,0,1-7.93,2.91c-7.34,0-11.6-5.54-11.6-13.91,0-8.57,5.1-14,12-14a11,11,0,0,1,7.09,2.19,2.13,2.13,0,0,1,.84,1.4,1.54,1.54,0,0,1-1.36,1.47,2.23,2.23,0,0,1-1.35-.64,8.66,8.66,0,0,0-5.26-1.63c-5.42,0-9,4.47-9,11.2,0,7.22,3.55,11.12,8.77,11.12a9.58,9.58,0,0,0,6.14-2.31,1.73,1.73,0,0,1,1.19-.52,1.38,1.38,0,0,1,1.24,1.36A1.85,1.85,0,0,1,302.47,243.56Z"/><path class="cls-2" d="M316.15,228.46a2.58,2.58,0,0,1-.8-.12,5.28,5.28,0,0,0-1.27-.2c-2.71,0-4.71,2.07-4.71,5.7v11c0,1-.48,1.39-1.47,1.39s-1.48-.39-1.48-1.39V226.9c0-.91.56-1.31,1.48-1.31s1.47.35,1.47,1.31v1.36a5.33,5.33,0,0,1,4.91-2.91,4.84,4.84,0,0,1,2.07.36,1.28,1.28,0,0,1,.88,1.19C317.23,227.78,316.75,228.46,316.15,228.46Z"/><path class="cls-2" d="M333.37,236.91H321.29c.12,4.18,2.75,6.81,6.26,6.81a7.49,7.49,0,0,0,4.15-1.19,3.21,3.21,0,0,1,1.43-.6,1.5,1.5,0,0,1,1.32,1.43c0,.6-.28,1-1.6,1.8a10.69,10.69,0,0,1-5.34,1.31c-5.9,0-9.2-4.3-9.2-10.36,0-5.82,3-10.76,9-10.76,5.07,0,8,3.7,8,9.08C335.4,235.75,334.89,236.91,333.37,236.91Zm-12-2.71h11.08c0-3.19-1.67-6.1-5.14-6.1C323.69,228.1,321.65,230.89,321.37,234.2Z"/><path class="cls-2" d="M353.43,246.23c-1,0-1.48-.35-1.48-1.35v-1.72a6.53,6.53,0,0,1-6,3.31c-5.62,0-8.29-4.74-8.29-10.6,0-5.7,2.71-10.52,8.61-10.52a6.28,6.28,0,0,1,5.66,3v-1.44c0-.95.52-1.35,1.48-1.35s1.47.4,1.47,1.35v17.94C354.9,245.84,354.38,246.23,353.43,246.23ZM352,234c0-3.39-2.15-5.94-5.46-5.94-4.23,0-5.86,3.94-5.86,7.77s1.39,7.85,5.86,7.85c3.35,0,5.46-2.59,5.46-5.9Z"/><path class="cls-2" d="M367.22,228.42h-3.47v12.15c0,1.52.4,3.11,2.24,3.11a4.58,4.58,0,0,0,1.91-.52,1.2,1.2,0,0,1,.48-.11,1.36,1.36,0,0,1,1.15,1.43,1.66,1.66,0,0,1-1,1.36,6.38,6.38,0,0,1-2.75.63c-3.11,0-4.91-1.55-4.91-5.74V228.42h-1.35c-1.48,0-2.07-.12-2.07-1.36,0-1,.35-1.31,1.39-1.31h2V221.2c0-1,.44-1.35,1.44-1.35s1.47.39,1.47,1.35v4.55h3.47c1,0,1.36.35,1.36,1.31S368.18,228.42,367.22,228.42Z"/><path class="cls-2" d="M373.28,221.12a1.88,1.88,0,1,1,1.88-1.87A1.87,1.87,0,0,1,373.28,221.12Zm0,25.11c-.91,0-1.43-.39-1.43-1.35v-18c0-.91.52-1.31,1.47-1.31s1.48.4,1.48,1.31v18C374.76,245.84,374.2,246.23,373.24,246.23Z"/><path class="cls-2" d="M394.33,229.33a68.59,68.59,0,0,1-7.09,16.19,1.4,1.4,0,0,1-1.32.71h-.2a1.35,1.35,0,0,1-1.39-.79c-2.51-4-5.06-11-6.34-16.55a12,12,0,0,1-.36-2c0-.84.76-1.31,1.64-1.31a1.12,1.12,0,0,1,1.31,1.11c.36,2,.88,4,1.48,6.1A67.85,67.85,0,0,0,385.92,243a73.86,73.86,0,0,0,4.39-10.49c.59-1.79,1.23-3.94,1.67-5.94a1.16,1.16,0,0,1,1.28-1c.87,0,1.63.39,1.63,1.19A10.39,10.39,0,0,1,394.33,229.33Z"/><path class="cls-2" d="M411.6,236.91H399.52c.12,4.18,2.75,6.81,6.26,6.81a7.46,7.46,0,0,0,4.14-1.19,3.19,3.19,0,0,1,1.44-.6,1.5,1.5,0,0,1,1.31,1.43c0,.6-.28,1-1.59,1.8a10.74,10.74,0,0,1-5.34,1.31c-5.9,0-9.21-4.3-9.21-10.36,0-5.82,3-10.76,9.05-10.76,5.06,0,8.05,3.7,8.05,9.08C413.63,235.75,413.11,236.91,411.6,236.91Zm-12-2.71h11.08c0-3.19-1.68-6.1-5.14-6.1C401.91,228.1,399.88,230.89,399.6,234.2Z"/><path class="cls-2" d="M439.9,246.23c-.95,0-1.47-.35-1.47-1.35v-1.72a6.53,6.53,0,0,1-6,3.31c-5.62,0-8.29-4.74-8.29-10.6,0-5.7,2.71-10.52,8.61-10.52a6.28,6.28,0,0,1,5.66,3v-1.44c0-.95.52-1.35,1.47-1.35s1.48.4,1.48,1.35v17.94C441.38,245.84,440.86,246.23,439.9,246.23ZM438.43,234c0-3.39-2.15-5.94-5.46-5.94-4.23,0-5.86,3.94-5.86,7.77s1.39,7.85,5.86,7.85c3.35,0,5.46-2.59,5.46-5.9Z"/><path class="cls-2" d="M462.23,244.24c0,6.42-3,10.25-9.25,10.25a10.19,10.19,0,0,1-5.58-1.56c-.76-.44-1.08-.92-1.08-1.39a1.48,1.48,0,0,1,1.24-1.56,3.38,3.38,0,0,1,1.48.56,7.19,7.19,0,0,0,4.06,1.2c5.3,0,6.1-3.59,6.18-7.94v-.71a6.42,6.42,0,0,1-5.9,3.38c-5,0-8.37-3.86-8.37-10.6,0-6.5,3.35-10.52,8.65-10.52a6.33,6.33,0,0,1,5.62,3v-1.4c0-.95.56-1.35,1.52-1.35s1.43.4,1.43,1.35Zm-3-10.2c0-3.39-2.15-5.94-5.46-5.94-3.63,0-5.86,3-5.86,7.77s2.15,7.85,5.86,7.85c3.47,0,5.46-2.63,5.46-6Z"/><path class="cls-2" d="M480.93,236.91H468.85c.12,4.18,2.75,6.81,6.26,6.81a7.52,7.52,0,0,0,4.15-1.19,3.13,3.13,0,0,1,1.43-.6,1.5,1.5,0,0,1,1.32,1.43c0,.6-.28,1-1.6,1.8a10.71,10.71,0,0,1-5.34,1.31c-5.9,0-9.21-4.3-9.21-10.36,0-5.82,3-10.76,9.05-10.76,5.06,0,8,3.7,8,9.08C483,235.75,482.45,236.91,480.93,236.91Zm-12-2.71H480c0-3.19-1.67-6.1-5.14-6.1C471.24,228.1,469.21,230.89,468.93,234.2Z"/><path class="cls-2" d="M501.14,246.23c-.95,0-1.51-.39-1.51-1.35V233.32c0-2.43-.84-5.18-4.55-5.18-3.14,0-5.7,2.23-5.7,6.73v10c0,1-.51,1.35-1.47,1.35s-1.48-.39-1.48-1.35V226.94c0-.95.52-1.35,1.48-1.35s1.47.4,1.47,1.35v1.91a7.07,7.07,0,0,1,6.26-3.5c4.91,0,6.94,3.31,6.94,7.29v12.24C502.58,245.84,502.1,246.23,501.14,246.23Z"/><path class="cls-2" d="M522.19,228.73a1.54,1.54,0,0,1-1.39,1.48,2.07,2.07,0,0,1-1.24-.6,6.43,6.43,0,0,0-4.22-1.51c-3.63,0-6.26,2.79-6.26,7.81s2.55,7.81,6.14,7.81a7.13,7.13,0,0,0,4.38-1.59,2.1,2.1,0,0,1,1.24-.6,1.5,1.5,0,0,1,1.39,1.48,2.48,2.48,0,0,1-1.07,1.55,10.08,10.08,0,0,1-6,1.91c-5.42,0-9-4.22-9-10.56,0-6.62,4-10.56,9.29-10.56a8.48,8.48,0,0,1,6.26,2.31A1.52,1.52,0,0,1,522.19,228.73Z"/><path class="cls-2" d="M540.81,226.74a6.42,6.42,0,0,1-.28,1.6,71.72,71.72,0,0,1-7.33,17.38c-2.63,4.5-5.5,7.41-7.06,8.17a5.43,5.43,0,0,1-2.39.64c-.64,0-1.19-.56-1.19-1.48,0-.56.16-.84,1.27-1.12,1.68-.47,3.79-2.35,6.5-6.57a58.45,58.45,0,0,1-4.94-11.4,52.27,52.27,0,0,1-1.56-5.74,7.88,7.88,0,0,1-.2-1.36c0-.84.72-1.31,1.6-1.31a1.12,1.12,0,0,1,1.31,1.11A58.44,58.44,0,0,0,528,232.6a72.7,72.7,0,0,0,3.9,10.17,81.77,81.77,0,0,0,4.31-9.89,53.61,53.61,0,0,0,1.75-6.3,1.13,1.13,0,0,1,1.24-1C540.1,225.55,540.81,225.94,540.81,226.74Z"/><rect class="cls-1" x="364.59" y="107.07" width="10.92" height="38.56" rx="5.46"/><rect class="cls-3" x="316.33" y="52.18" width="10.92" height="28.53" rx="5.46"/><rect class="cls-4" x="364.59" y="85.83" width="10.92" height="17.08" rx="5.46"/><rect class="cls-3" x="316.33" y="84.75" width="10.92" height="40.77" rx="5.46"/><rect class="cls-5" x="190.52" y="86.96" width="10.92" height="38.56" rx="5.46" transform="translate(391.96 212.49) rotate(180)"/><rect class="cls-6" x="234.61" y="25.86" width="10.92" height="26.19" rx="5.46"/><rect class="cls-6" x="234.61" y="56.22" width="10.92" height="50.85" rx="5.46"/><rect class="cls-6" x="234.61" y="74.67" width="10.92" height="50.85" rx="5.46"/><path class="cls-1" d="M303.5,196.13a3.87,3.87,0,0,0-1.77.45c-2.36,1-4.42,1.92-7.08,1.92-6.79,0-8.27-5.91-8.27-11.52V142h12.84c3.55,0,5-1.48,5-5s-1.47-4.87-5-4.87H268.08c-3.84,0-5.17,1.33-5.17,4.87,0,4.58,2.21,5,7.68,5h5v45.61c0,15.5,6.64,21.26,18.15,21.26A23,23,0,0,0,304,206.47c2.36-1.33,3.84-3,3.84-5C307.79,198.79,305.87,196.13,303.5,196.13Z"/><rect class="cls-7" x="275.47" width="10.92" height="125.53" rx="5.23"/></g></g></svg>