<svg xmlns="http://www.w3.org/2000/svg" viewBox="0 0 167.92 44.88"><defs><style>.cls-1{fill:#008655;}.cls-1,.cls-2{fill-rule:evenodd;}.cls-2,.cls-3{fill:#99935e;}</style></defs><g id="Layer_2" data-name="Layer 2"><g id="Layer_1-2" data-name="Layer 1"><path class="cls-1" d="M133.28,0V0c-.24.73-.45,1.48-.64,2.26a8.62,8.62,0,0,0-2.87-.5A9.6,9.6,0,0,0,121.09,8a9,9,0,0,1,6.38-3.12,9.81,9.81,0,0,0-4.76,10.33,9.72,9.72,0,0,1,6.34-7.17,9.31,9.31,0,0,0-.81,12.8,9.55,9.55,0,0,1-.38-2.63,9.36,9.36,0,0,1,3.76-7.48,34.65,34.65,0,0,0,1.64,10.75v0a34.65,34.65,0,0,0,1.64-10.75,9.36,9.36,0,0,1,3.76,7.48,9.55,9.55,0,0,1-.38,2.63,9.31,9.31,0,0,0-.81-12.8,9.72,9.72,0,0,1,6.34,7.17,9.81,9.81,0,0,0-4.76-10.33A9,9,0,0,1,145.45,8a9.6,9.6,0,0,0-8.66-6.28,8.62,8.62,0,0,0-2.87.5c-.19-.78-.4-1.53-.64-2.26Z"/><path class="cls-2" d="M144.63,44c-.94-.76-4-3.23-7.74-6.14,2.52-2.28,5.07-4.52,7.71-6.64.89-.71,1.81-1.41,2.73-2.06A27.75,27.75,0,0,1,152.88,26,15.18,15.18,0,0,1,157,25a9.8,9.8,0,0,1,5.28.9c4.81,2.33,5.17,8,5.17,8l.49.06a10.45,10.45,0,0,0-.64-4.14,10.89,10.89,0,0,0-5.16-6.05c-4-2.12-8.53-1.14-11.47,0a37.24,37.24,0,0,0-6.32,3.3c-3.08,1.95-7.23,5-11.16,8-3.92-3-8.07-6-11.16-8a36.78,36.78,0,0,0-6.31-3.3c-2.94-1.12-7.43-2.1-11.47,0a10.94,10.94,0,0,0-5.17,6.05,10.46,10.46,0,0,0-.63,4.14l.49-.06s.36-5.67,5.17-8a9.78,9.78,0,0,1,5.27-.9,15.09,15.09,0,0,1,4.09,1A27.47,27.47,0,0,1,119,29.17c.93.65,1.84,1.35,2.74,2.06,2.64,2.12,5.19,4.36,7.71,6.64-3.75,2.91-6.8,5.38-7.75,6.14h8.4c1-.91,2-1.84,3.07-2.77,1,.93,2.05,1.86,3.07,2.77Z"/><path class="cls-1" d="M134.55,27.81c-3.09-2.27-8.05-4.59-12.55-.79l-.51-.32s4.07-4.87,10.16-4.18a13.46,13.46,0,0,1,6.67,3c.66.49,1.42,1.09,2.25,1.81,3.81,3.28,7,7,10.9,10.22a25.85,25.85,0,0,0,3.8,2.7s5.48,3.13,9.19.25a9.54,9.54,0,0,0,1.77-1.7l.33.16a12.17,12.17,0,0,1-5.86,4.83A11.73,11.73,0,0,1,152,43a20.54,20.54,0,0,1-4.76-3.19l-3.74-3.6c-2.87-2.76-5.73-6-8.94-8.4Z"/><polygon class="cls-1" points="102.16 32.49 105.48 29.17 108.39 32.07 111.3 29.17 114.62 32.49 111.3 35.82 108.39 32.91 105.48 35.82 102.16 32.49 102.16 32.49"/><polygon class="cls-3" points="7.72 42.76 6.4 42.76 6.4 35.98 3.9 42.76 2.97 42.76 0.53 36.09 0.53 42.76 0.01 42.76 0.01 34.8 1.37 34.8 3.86 41.54 6.37 34.8 7.72 34.8 7.72 42.76 7.72 42.76"/><path class="cls-3" d="M10.91,35.48a.47.47,0,0,1-.2.39.79.79,0,0,1-1,0,.47.47,0,0,1,0-.78.83.83,0,0,1,1,0,.47.47,0,0,1,.2.39Zm-.14,7.28H9.67V36.9a4.22,4.22,0,0,0,1.1-.17v6Z"/><path class="cls-3" d="M17.93,42.76H16.85V38.09a.88.88,0,0,0-1-1,2,2,0,0,0-1.64.88,1.71,1.71,0,0,0-.45.94v3.85H12.68v-5.9a5.42,5.42,0,0,0,1.09-.13v1.41a3.83,3.83,0,0,1,1.11-1,2.8,2.8,0,0,1,1.36-.36,2,2,0,0,1,1.22.36,1.19,1.19,0,0,1,.47,1v4.7Z"/><path class="cls-3" d="M21.08,35.48a.5.5,0,0,1-.2.39.79.79,0,0,1-1,0,.47.47,0,0,1,0-.78.83.83,0,0,1,1,0,.5.5,0,0,1,.2.39Zm-.14,7.28h-1.1V36.9a4.22,4.22,0,0,0,1.1-.17v6Z"/><path class="cls-3" d="M27.18,41.21a1.41,1.41,0,0,1-.69,1.22,2.84,2.84,0,0,1-1.65.46,2.68,2.68,0,0,1-2-.69,1.85,1.85,0,0,1-.43-1.34l.67-.13a2.08,2.08,0,0,0-.11.57,1.14,1.14,0,0,0,.54,1,2.08,2.08,0,0,0,1.27.39,1.85,1.85,0,0,0,1.07-.3.93.93,0,0,0-.11-1.63,6.26,6.26,0,0,0-1.09-.43,5.82,5.82,0,0,1-1.48-.67,1.42,1.42,0,0,1-.7-1.19,1.46,1.46,0,0,1,.74-1.26,3,3,0,0,1,1.66-.44c1.38,0,2.07.58,2.07,1.73l-.64.13a3.2,3.2,0,0,0,.05-.45,1,1,0,0,0-.42-.85A1.62,1.62,0,0,0,24.86,37a1.78,1.78,0,0,0-1.05.31.89.89,0,0,0-.46.77A1.15,1.15,0,0,0,24,39a10.25,10.25,0,0,0,1.31.52,5.58,5.58,0,0,1,1.3.6,1.3,1.3,0,0,1,.53,1.09Z"/><path class="cls-3" d="M30.65,42.14c-.1.46-.46.69-1.07.69s-1.08-.31-1.08-.93V37.23h-.65v-.34h.65v-1a6.78,6.78,0,0,0,1.1-.48v1.47h.81v.34H29.6v4.7c0,.38.12.57.37.57s.34-.12.35-.36Z"/><path class="cls-3" d="M35.72,37.61a3.19,3.19,0,0,1-.25,1.07h-.93a5.82,5.82,0,0,0,.27-1q0-.45-.48-.45c-.45,0-.8.29-1,.88A3.3,3.3,0,0,0,33,39.2v3.56H31.88V36.89A4.51,4.51,0,0,0,33,36.73V38.2q.63-1.47,1.77-1.47c.64,0,1,.3,1,.88Z"/><path class="cls-3" d="M42,36.89,38.8,43.76a2.5,2.5,0,0,1-.49.78,1.25,1.25,0,0,1-.93.34,1.27,1.27,0,0,1-.69-.14,1,1,0,0,1-.36-.49l.49-.29c.1.43.31.65.62.65s.69-.26.92-.78l.4-.92-2.55-6h1.17l2,4.79,2.2-4.79Z"/><path class="cls-3" d="M51.67,39.81a3.72,3.72,0,0,1-.53,2.09,2.9,2.9,0,0,1-4.36,0,4.31,4.31,0,0,1,0-4.18,2.9,2.9,0,0,1,4.36,0,3.72,3.72,0,0,1,.53,2.09Zm-1.2,0c0-1.92-.5-2.88-1.51-2.88s-1.51,1-1.51,2.88S48,42.67,49,42.67s1.51-1,1.51-2.86Z"/><path class="cls-3" d="M55.86,35.66a2.11,2.11,0,0,1,0,.26l-.68.21c.06-.31.09-.49.09-.53a.86.86,0,0,0-.14-.46.47.47,0,0,0-.42-.22.57.57,0,0,0-.51.23.81.81,0,0,0-.17.52,3.89,3.89,0,0,0,.41,1.22h1.14v.33H54.42v5.54h-1.1V37.22H52.26v-.33h1.06V36a1.25,1.25,0,0,1,.33-.9,1.32,1.32,0,0,1,1-.39c.79,0,1.19.32,1.19,1Z"/><polygon class="cls-3" points="66.8 42.76 65.52 42.76 65.52 38.64 61.72 38.64 61.72 42.76 60.45 42.76 60.45 34.8 61.72 34.8 61.72 38.21 65.52 38.21 65.52 34.8 66.8 34.8 66.8 42.76 66.8 42.76"/><path class="cls-3" d="M73.69,40.92c0,1.31-.78,2-2.34,2A3,3,0,0,1,69,42a2.85,2.85,0,0,1-.71-2,4.61,4.61,0,0,1,.24-1.52,2.41,2.41,0,0,1,1-1.25,2.84,2.84,0,0,1,1.67-.51,2.32,2.32,0,0,1,1.62.57,2.3,2.3,0,0,1,.7,1.36,7.63,7.63,0,0,1,.07,1.17H69.53a6.13,6.13,0,0,0,.27,1.84,1.7,1.7,0,0,0,1.72,1,1.74,1.74,0,0,0,1.18-.4,1.23,1.23,0,0,0,.48-1,2.48,2.48,0,0,0-.06-.54l.57.12v.06Zm-1.15-1.37Q72.5,37,71.16,37a1.42,1.42,0,0,0-1.42,1.17,7.25,7.25,0,0,0-.19,1.41Z"/><path class="cls-3" d="M80.93,42.72a6.14,6.14,0,0,1-1,.12,1.49,1.49,0,0,1-1-.24,1,1,0,0,1-.29-.77,2,2,0,0,1-1.91,1.05,2.13,2.13,0,0,1-1.48-.48,1.6,1.6,0,0,1-.54-1.25,1.43,1.43,0,0,1,.54-1.2,4.06,4.06,0,0,1,1.43-.58c.51-.13.84-.22,1-.28a1.57,1.57,0,0,0,.82-.49.78.78,0,0,0,.14-.5,1.06,1.06,0,0,0-.4-.86,1.77,1.77,0,0,0-1.08-.31,1.86,1.86,0,0,0-1,.31.89.89,0,0,0-.46.78,2.19,2.19,0,0,0,.2.72l-.69-.14a1.6,1.6,0,0,1-.08-.47,1.19,1.19,0,0,1,.79-1.07,3.38,3.38,0,0,1,1.55-.33A3.61,3.61,0,0,1,79,37a1.08,1.08,0,0,1,.75,1V41.7c0,.56.23.84.67.84a1.51,1.51,0,0,0,.49-.1l0,.28Zm-2.29-1.85v-2a2.39,2.39,0,0,1-.85.5l-.82.29a1.9,1.9,0,0,0-.69.48,1.69,1.69,0,0,0-.35,1.06,1.77,1.77,0,0,0,.22.92,1,1,0,0,0,.89.49,1.46,1.46,0,0,0,1.2-.58,1.87,1.87,0,0,0,.4-1.15Z"/><path class="cls-3" d="M82.74,42.76H81.67v-8a9.7,9.7,0,0,0,1.07-.11v8.07Z"/><path class="cls-3" d="M86.85,42.14c-.1.46-.45.69-1.06.69s-1.08-.31-1.08-.93V37.23h-.65v-.34h.65v-1a6.67,6.67,0,0,0,1.09-.48v1.47h.82v.34H85.8v4.7c0,.38.13.57.37.57a.33.33,0,0,0,.36-.36Z"/><path class="cls-3" d="M93.34,42.76h-1.1V38.07a.85.85,0,0,0-1-1,1.93,1.93,0,0,0-1.67,1,2.06,2.06,0,0,0-.43,1.08v3.59h-1.1v-8a5.75,5.75,0,0,0,1.1-.12v3.67a2.91,2.91,0,0,1,1.08-1.24,2.57,2.57,0,0,1,1.36-.37,2.09,2.09,0,0,1,1.24.35,1.09,1.09,0,0,1,.48.94v4.73Z"/><path class="cls-1" d="M39.41,25.94c.68,0,.89-.21.89-.89V23.13a3.56,3.56,0,0,0-.69-2.53,3.05,3.05,0,0,0-2.28-1.18c-3,0-6,3.74-6.22,6.52Zm48.41-1a3.56,3.56,0,0,0,2.42,1.27c.15,0,.76,0,.91.05a1.2,1.2,0,0,1-.87,1l-.42-.06a4.41,4.41,0,0,1-1.79-.54,3.77,3.77,0,0,1-2-3.74A5.18,5.18,0,0,1,91.44,18h1.4v8.25h0v2.45a2.44,2.44,0,0,1-.43,1.84,3.34,3.34,0,0,1-1.37,1,7.12,7.12,0,0,1-2.35.13V30.47h1.66a1.1,1.1,0,0,0,1.11-1.18v-1h0v-9h-.61A2.82,2.82,0,0,0,88.9,20a4.75,4.75,0,0,0-1.17,1.49,4.45,4.45,0,0,0,.09,3.38Zm-6.34,4.38a1.14,1.14,0,0,1-1.19,1.18H78.52v1.19A8.11,8.11,0,0,0,81,31.53a3.62,3.62,0,0,0,1.47-1A2.34,2.34,0,0,0,83,28.73V18H81.48V29.29Zm-5.74-2.17h1.4V12.31H75.73q0,7.41,0,14.81Zm-15-2.21c.7,1,2.39,1.36,3.93,1.36v-7H64a3.2,3.2,0,0,0-2.1.79,4.9,4.9,0,0,0-1.28,1.49,4.11,4.11,0,0,0,.11,3.38ZM66.21,18H64.68c-3.1,0-5.8,2.18-5.8,4.88A3.7,3.7,0,0,0,61,26.65a13.52,13.52,0,0,0,5.18.84c0-3.15,0-6.3,0-9.46ZM51,27.12h1.4V12.31H51c0,4.94,0,9.88,0,14.81ZM82.32,13.71a1.11,1.11,0,1,1-1.1,1.11,1.11,1.11,0,0,1,1.1-1.11ZM62,13.71a1.11,1.11,0,1,1-1.11,1.11A1.11,1.11,0,0,1,62,13.71Zm3.1,0A1.11,1.11,0,1,1,64,14.82a1.11,1.11,0,0,1,1.11-1.11Zm-62.24,0a1.11,1.11,0,1,1-1.11,1.11,1.11,1.11,0,0,1,1.11-1.11Zm3.1,0a1.11,1.11,0,1,1-1.11,1.11A1.11,1.11,0,0,1,6,13.71ZM70.52,29.29a1.14,1.14,0,0,1-1.19,1.18H67.55v1.19a8.16,8.16,0,0,0,2.52-.13,3.69,3.69,0,0,0,1.47-1A2.34,2.34,0,0,0,72,28.73V18H70.52V29.29ZM1.81,24.61c.69,1,2.32,1.33,3.82,1.33V19.12H5a3.1,3.1,0,0,0-2,.77,4.85,4.85,0,0,0-1.24,1.44,4,4,0,0,0,.1,3.28ZM45.7,26.23H41.81v-3a6.22,6.22,0,0,0-.23-1.72,4.6,4.6,0,0,0-1.2-2.07,4.5,4.5,0,0,0-5.08-.61c-3.27,1.4-4,4.7-5.15,6.24a2.61,2.61,0,0,1-.52.53V21.2H28.22v4.74H24.59a11.7,11.7,0,0,0-.51-3.86,4.92,4.92,0,0,0-2.5-2.54,13.08,13.08,0,0,0-5-1.05c-1.36,0-2.75,0-4.09,0v1.11H14.5c2.37,0,5-.27,7,1.51A3.9,3.9,0,0,1,22.79,24q0,.38,0,.78v1.21H7.11v-8H5.63c-3,0-5.63,2.11-5.63,4.74,0,1.42.08,2.2,1.35,3.16a5.12,5.12,0,0,0,1.81.9,3.9,3.9,0,0,0,1.7-.06l.68-.11.09.55H47.11V12.31H45.7V26.23Z"/></g></g></svg>