<svg xmlns="http://www.w3.org/2000/svg" viewBox="0 0 119.08 48.72"><defs><style>.cls-1{fill:#164191;}.cls-2{fill:#4993cf;}</style></defs><g id="Layer_2" data-name="Layer 2"><g id="Layer_1-2" data-name="Layer 1"><path class="cls-1" d="M59.09,48.7l7.14-25.36s1.36-5.68,2.92-8.47a8.6,8.6,0,0,1,5.69-4,11.62,11.62,0,0,1,4.34.3,3.86,3.86,0,0,1,2.55,2.28A2.63,2.63,0,0,1,79.35,17,2.32,2.32,0,0,1,77,15.84a2.12,2.12,0,0,1,.29-2.15,1.15,1.15,0,0,0-.09-1.53,3.15,3.15,0,0,0-2.53.5c-.89.58-2.07,3.25-2.31,4-.13.43-1.29,5.07-1.29,5.07l8.84,0L76,35.36H71.85l2.73-11.43H70.34l-6.7,24.79Z"/><path class="cls-1" d="M64.6,19.2c-1-3.29-6.24-3.6-6.24-3.6l-6.9-.08L46,35.47h4.59L52.21,29a31.8,31.8,0,0,0,4.16-.18c4.49-.61,6.2-2.47,6.2-2.47.71-.82,3-3.81,2-7.11m-5.63,5a4.71,4.71,0,0,1-3,2,10.42,10.42,0,0,1-3,.2l2.41-8.91h1.86c1.37.16,2.59.67,3,2.06.3,1.12-.86,4.11-1.25,4.61"/><polygon class="cls-1" points="81.48 21.8 93.22 21.8 84.55 33.33 90.87 33.33 90.24 35.52 77.82 35.52 86.8 24.25 80.8 24.25 81.48 21.8"/><path class="cls-1" d="M104.54,29c1-3.6-.73-7.46-4.85-7.46s-7.52,3.65-7.78,6.57.32,7.83,6.63,7.83a7.69,7.69,0,0,0,5-1.72L102.61,32a4.41,4.41,0,0,1-4.12,1.47c-2.72-.42-2.67-3.24-2.4-4.39l8.45-.05m-5.22-5.27C102.09,23.73,101,27,101,27h-4.8s.32-3.24,3.08-3.24"/><path class="cls-1" d="M112.42,21.85h-4.23l-3.6,13.25H109s1.39-7.64,4-10.27c.94-.94,1.83-.27,2.09.62a1.94,1.94,0,0,0,3.18.63,2.5,2.5,0,0,0-1.09-4.28c-2-.42-4.38,1.46-5.33,2.71Z"/><path class="cls-2" d="M7.87,8.77,10.16,0A78.47,78.47,0,0,1,31.39,5.16C43.27,9.75,43.63,15.39,43.5,16.06s-2,9-2,9C41.18,13.84,17.54,9.44,7.87,8.77"/><path class="cls-1" d="M21.75,21.91l-2.21,8.68s19.2,2.94,21.93-5.49A8.22,8.22,0,0,0,40,20.71c-1.56,1.74-12.69,2.24-18.29,1.2"/><path class="cls-1" d="M35.65,35.05l-2.3,8.77a78.56,78.56,0,0,1-21.23-5.16C.24,34.07-.12,28.44,0,27.76s2-9,2-9C2.34,30,26,34.38,35.65,35.05"/><path class="cls-2" d="M21.77,21.91,24,13.23S4.78,10.29,2,18.72a8.23,8.23,0,0,0,1.44,4.39c1.56-1.74,12.69-2.24,18.29-1.2"/></g></g></svg>