<svg xmlns="http://www.w3.org/2000/svg" viewBox="0 0 92.71 48.11"><defs><style>.cls-1{fill:#006fba;}</style></defs><g id="Layer_2" data-name="Layer 2"><g id="Layer_1-2" data-name="Layer 1"><path class="cls-1" d="M62.71,18.47a4,4,0,0,0-2.38-.69,4.32,4.32,0,0,0-2.52.83V12.54h-3V32.35h3V22a1.66,1.66,0,0,1,1.72-1.56,1.82,1.82,0,0,1,1.54.72,3.68,3.68,0,0,1,.35,2.1v9.08h3v-9.2c0-2.71-.36-3.67-1.72-4.68"/><path class="cls-1" d="M38.26,25.27a24,24,0,0,1-.08,2.65c-.1,1.08-.56,2.22-1.81,2.22s-1.76-1.22-1.82-2.27c0,0-.08-.66-.08-2.6s.08-2.75.08-2.76c0-1.09.58-2.19,1.82-2.19s1.8,1.1,1.81,2.18c0,0,.08.83.08,2.77m2.91-2.34c-.43-4.24-2.84-5.14-4.81-5.14-2.8,0-4.5,1.77-4.81,5.14,0,.26-.07.76-.08,2.34,0,1.15.06,2.1.08,2.34.19,3.13,2,5.07,4.81,5.07s4.62-2,4.81-5.08c0-.22.08-1.18.08-2.33C41.25,24.75,41.21,23.33,41.17,22.93Z"/><path class="cls-1" d="M69.44,23.49c0-.66,0-.8,0-1,.08-1.19.61-2.17,1.83-2.18,1.44,0,1.78,1.4,1.83,2.19,0,.41.06.68.06,1H69.44m3.71,4a3.51,3.51,0,0,1,0,.49c-.08.7-.36,2.2-1.83,2.2-1.24,0-1.72-1.14-1.8-2.26a18.24,18.24,0,0,1-.08-1.9h6.71s0-1,0-1.6c0-.23,0-.62-.08-1.45a6.78,6.78,0,0,0-1.29-3.56,4.29,4.29,0,0,0-3.45-1.58c-2.7,0-4.4,1.76-4.73,5.14a20,20,0,0,0-.08,2.34c0,1.15.06,2.11.08,2.34.18,3.08,2,5.07,4.73,5.07s4.55-1.94,4.74-5.23Z"/><path class="cls-1" d="M22,2.43H70.82L89.5,24.28,70.82,45.84H22L3.21,24.21,22,2.43M72,0H20.78L0,24.13l20.78,24H72l20.71-23.9Z"/><path class="cls-1" d="M22.57,15.23H24a2.16,2.16,0,0,1,2.42,2.29c0,.1,0,.23,0,.46a4,4,0,0,1,0,.46,2.29,2.29,0,0,1-2.28,2.39H22.57v-5.6m7.12,15.9-.31-4.87c-.14-2.17-.7-3.45-1.83-4.11.81-.49,1.86-1.7,1.86-4.23,0-3.84-2.41-5.19-5.22-5.22H19.6V32.35h3v-9h1.65c1,0,2,.84,2.19,3.18l.31,4.61a7,7,0,0,0,.15,1.21h3A6.66,6.66,0,0,1,29.69,31.13Z"/><path class="cls-1" d="M50,27.32c0,.22,0,.41,0,.55-.08,1.1-.47,2.27-1.82,2.27s-1.74-1.27-1.83-2.2c-.06-.57,0-1-.06-2.67a23.61,23.61,0,0,1,.08-2.76c.11-1.23.58-2.18,1.81-2.19s1.81,1.1,1.82,2.18c0,0,0,.27.05.85h3c0-.2,0-.37,0-.46-.33-4.11-2.84-5.1-4.81-5.1-2.8,0-4.5,1.77-4.81,5.14,0,.26-.07.76-.08,2.34,0,1.15.06,2.1.08,2.34.19,3.13,2,5.06,4.81,5.07s4.53-1.78,4.81-5.08a1.52,1.52,0,0,0,0-.28H50"/></g></g></svg>